HIERARCHY
ROOT Hips
{
	OFFSET 0.00000 0.00000 0.00000
	CHANNELS 6 Xposition Yposition Zposition Zrotation Yrotation Xrotation 
	JOINT LHipJoint
	{
		OFFSET 0 0 0
		CHANNELS 3 Zrotation Yrotation Xrotation
		JOINT LeftHip
		{
			OFFSET 1.66553 -1.82942 0.76350
			CHANNELS 3 Zrotation Yrotation Xrotation
			JOINT LeftKnee
			{
				OFFSET 2.41740 -6.64177 0.00000
				CHANNELS 3 Zrotation Yrotation Xrotation
				JOINT LeftAnkle
				{
					OFFSET 2.71614 -7.46254 0.00000
					CHANNELS 3 Zrotation Yrotation Xrotation
					JOINT LeftToe
					{
						OFFSET 0.08005 -0.21993 1.82495
						CHANNELS 3 Zrotation Yrotation Xrotation
						End Site
						{
							OFFSET 0.00000 -0.00000 0.93441
						}
					}
				}
			}
		}
	}
	JOINT RHipJoint
	{
		OFFSET 0 0 0
		CHANNELS 3 Zrotation Yrotation Xrotation
		JOINT RightHip
		{
			OFFSET -1.63725 -1.82942 0.76350
			CHANNELS 3 Zrotation Yrotation Xrotation
			JOINT RightKnee
			{
				OFFSET -2.40538 -6.60872 0.00000
				CHANNELS 3 Zrotation Yrotation Xrotation
				JOINT RightAnkle
				{
					OFFSET -2.73312 -7.50919 0.00000
					CHANNELS 3 Zrotation Yrotation Xrotation
					JOINT RightToe
					{
						OFFSET -0.15567 -0.42769 1.93504
						CHANNELS 3 Zrotation Yrotation Xrotation
						End Site
						{
							OFFSET -0.00000 -0.00000 1.00100
						}
					}
				}
			}
		}
	}
	JOINT lowerback
	{
		OFFSET 0 0 0
		CHANNELS 3 Zrotation Yrotation Xrotation
		JOINT Chest
		{
			OFFSET 0.00326 2.30118 -0.13017
			CHANNELS 3 Zrotation Yrotation Xrotation
			JOINT Chest2
			{
				OFFSET 0.02887 2.30677 0.00834
				CHANNELS 3 Zrotation Yrotation Xrotation
				JOINT lowerneck
				{
					OFFSET 0 0 0
					CHANNELS 3 Zrotation Yrotation Xrotation
					JOINT Neck
					{
						OFFSET 0.12946 1.68326 0.00713
						CHANNELS 3 Zrotation Yrotation Xrotation
						JOINT Head
						{
							OFFSET -0.24364 1.67243 -0.16079
							CHANNELS 3 Zrotation Yrotation Xrotation
							End Site
							{
								OFFSET -0.09229 1.70819 -0.06383
							}
						}
					}
				}
				JOINT LeftCollar
				{
					OFFSET 0 0 0
					CHANNELS 3 Zrotation Yrotation Xrotation
					JOINT LeftShoulder
					{
						OFFSET 3.28104 0.69567 -0.00556
CHANNELS 3 Zrotation Xrotation Yrotation
						JOINT LeftElbow
						{
OFFSET 0 -5.707060 -0.000000
CHANNELS 3 Zrotation Xrotation Yrotation
							JOINT LeftWrist
							{
OFFSET 0 -3.332430 0.000000
CHANNELS 3 Zrotation Xrotation Yrotation
								JOINT lhand
								{
									OFFSET 0 0 0
CHANNELS 3 Zrotation Xrotation Yrotation
									JOINT LFingers
									{
OFFSET 0 -0.792690 0.000000
CHANNELS 3 Zrotation Xrotation Yrotation
										End Site
										{
OFFSET 0 -0.639090 0.000000
										}
									}
								}
								JOINT LThumb
								{
OFFSET 0 0.000000 0.000000
CHANNELS 3 Zrotation Xrotation Yrotation
									End Site
									{
OFFSET 0 -0.648840 0.648840
									}
								}
							}
						}
					}
				}
				JOINT RightCollar
				{
					OFFSET 0 0 0
					CHANNELS 3 Zrotation Yrotation Xrotation
					JOINT RightShoulder
					{
						OFFSET -3.40955 0.64424 0.14010
CHANNELS 3 Zrotation Xrotation Yrotation
						JOINT RightElbow
						{
OFFSET 0 -5.881760 -0.000000
CHANNELS 3 Zrotation Xrotation Yrotation
							JOINT RightWrist
							{
OFFSET 0 -3.281560 0.000000
CHANNELS 3 Zrotation Xrotation Yrotation
								JOINT rhand
								{
									OFFSET 0 0 0
CHANNELS 3 Zrotation Xrotation Yrotation
									JOINT RFingers
									{
OFFSET 0 -0.863130 0.000000
CHANNELS 3 Zrotation Xrotation Yrotation
										End Site
										{
OFFSET 0 -0.695870 0.000000
										}
									}
								}
								JOINT RThumb
								{
OFFSET 0 0.000000 0.000000
CHANNELS 3 Zrotation Xrotation Yrotation
									End Site
									{
OFFSET 0 -0.706500 0.706500
									}
								}
							}
						}
					}
				}
			}
		}
	}
}
MOTION
Frames: 10
Frame Time: 0.008333333333333333
27.327400 17.267100 -30.734200 5.982000 -30.694000 34.189500 0.000000 0.000000 0.000000 -12.446200 -19.655300 -59.728100 4.235500 12.467400 37.406100 0.340700 -9.166900 -11.403900 1.953100 -8.767700 -25.071400 0.000000 0.000000 0.000000 -11.014500 21.514800 -57.223000 -5.283800 -13.696400 42.034800 -1.116000 -7.069900 -23.686500 -0.908600 6.074300 -17.000100 1.327900 -1.687600 21.683000 1.503500 -1.727300 0.704200 1.448900 -0.832800 -11.397900 14.529000 5.520000 2.403700 -16.035600 8.790500 12.161400 -7.135200 4.324200 4.529800 -0.000000 -0.000000 0.000000 7.485100 17.221700 -26.805000 38.830800 -47.361700 17.574200 21.561000 -9.036400 -26.736100 0.000000 0.000000 0.000000 -7.125000 0.000000 0.000000 -9.605800 58.163100 3.112200 -0.000000 -0.000000 0.000000 -8.883900 9.958900 16.009300 -30.748900 -41.526700 -11.903000 -17.677400 -8.763200 -16.101300 0.000000 0.000000 0.000000 7.125000 0.000000 -0.000000 6.720200 13.209800 5.042300
27.143670 17.517380 -30.402450 4.296111 -31.376126 32.483972 0.000000 0.000000 0.000000 -12.756927 -17.426081 -54.651114 3.911561 12.041744 35.879886 0.188353 -9.334653 -9.490979 1.947491 -8.755783 -25.034438 0.000000 0.000000 0.000000 -6.901380 21.850697 -51.320927 -4.530426 -12.834486 38.752141 -0.825252 -6.821563 -20.951248 -0.910694 6.080725 -17.018943 0.521857 -2.363330 19.591002 1.808008 -2.795924 -0.532253 2.517883 -1.271598 -11.552428 14.781539 5.353118 1.486307 -16.521107 8.386470 10.546490 -7.322263 4.104426 4.168487 0.000000 0.000000 0.000000 6.835656 19.693289 -22.458998 27.162215 -38.327797 9.601768 20.532642 -6.441766 -27.176106 0.000000 0.000000 0.000000 -7.125000 0.000000 0.000000 -10.948619 58.376599 3.610885 0.000000 0.000000 0.000000 -8.318739 12.179443 13.063999 -26.448823 -37.647803 -9.160722 -18.227738 -8.412768 -14.941862 0.000000 0.000000 0.000000 7.125000 0.000000 0.000000 6.313120 14.354338 4.580423
26.939555 17.794150 -30.150367 2.212277 -32.479506 31.162414 0.000000 0.000000 0.000000 -12.423161 -14.675000 -50.163919 3.570248 11.565380 34.211314 0.068423 -8.902604 -7.449437 1.978867 -8.821199 -25.238055 0.000000 0.000000 0.000000 -3.274054 21.650673 -47.934353 -4.376129 -12.644792 38.053013 -0.528491 -3.462631 -15.440939 -0.946643 6.182714 -17.319727 -0.804495 -3.407776 17.988921 2.497399 -4.414266 -1.837801 4.447791 -1.908496 -11.897995 14.757123 5.398024 1.748364 -18.381412 8.454264 8.603980 -7.932257 4.119746 3.631940 0.000000 0.000000 0.000000 5.877532 22.003407 -17.660104 20.551219 -31.299180 5.815786 19.139159 -5.515331 -26.437896 0.000000 0.000000 0.000000 -7.125000 0.000000 0.000000 -12.044478 57.330833 3.673719 0.000000 0.000000 0.000000 -8.514799 13.673715 11.759808 -24.695767 -35.891339 -8.110851 -17.495886 -8.838871 -17.720802 0.000000 0.000000 0.000000 7.125000 0.000000 0.000000 6.900175 11.559593 5.417951
26.737721 18.051640 -29.995085 0.278538 -34.773668 29.564926 0.000000 0.000000 0.000000 -12.144964 -11.357815 -45.293582 3.126959 10.897746 31.935737 -0.043613 -7.934739 -4.585593 2.046410 -8.957717 -25.666065 0.000000 0.000000 0.000000 -1.531076 21.554435 -47.772787 -5.001030 -13.384834 40.826816 -0.079930 2.558466 -5.052032 -0.356094 3.820791 -10.574658 -2.601224 -3.797046 17.046973 2.503994 -5.330486 -2.570595 5.672663 -2.213169 -11.950500 14.908939 5.045100 1.050921 -20.325236 7.850735 6.953620 -8.626649 3.772480 3.246487 0.000000 0.000000 0.000000 6.828110 22.707139 -13.853346 17.780193 -27.874795 4.446010 17.689584 -3.549951 -27.930064 0.000000 0.000000 0.000000 -7.125000 0.000000 0.000000 -14.426687 58.488305 4.823095 0.000000 0.000000 0.000000 -6.808640 13.949471 9.519060 -24.335859 -35.517327 -7.900901 -16.869523 -8.080809 -19.006090 0.000000 0.000000 0.000000 7.125000 0.000000 0.000000 7.364275 10.312378 5.977530
26.483552 18.303318 -29.913231 -0.491623 -35.814527 27.415954 0.000000 0.000000 0.000000 -12.042614 -9.084195 -39.861114 2.495049 9.828562 28.423613 -0.136926 -7.449253 -1.056399 3.020710 -10.726991 -31.366119 0.000000 0.000000 0.000000 -2.249502 22.181986 -46.867438 -5.303140 -13.717243 42.116367 0.236989 8.611498 3.871116 -0.058413 1.550152 -4.264149 -4.369380 -4.682516 16.436111 2.454194 -6.906266 -3.335588 6.987085 -2.817427 -12.097215 15.103751 4.985282 0.303108 -22.221027 7.727777 6.391947 -9.307323 3.633511 3.276855 0.000000 0.000000 0.000000 8.415890 23.241025 -11.900309 18.721946 -29.070579 4.895590 20.046320 -3.697565 -28.405346 0.000000 0.000000 0.000000 -7.125000 0.000000 0.000000 -12.173984 59.494573 4.349506 0.000000 0.000000 0.000000 -5.104763 14.011570 7.666786 -24.178883 -35.352829 -7.809811 -14.118383 -4.564218 -20.313283 0.000000 0.000000 0.000000 7.125000 0.000000 0.000000 9.188999 9.301365 7.684926
26.144233 18.515856 -29.927265 -0.487824 -34.297059 25.908645 0.000000 0.000000 0.000000 -11.601896 -7.970772 -36.351041 1.964563 8.791782 25.146157 -0.177074 -7.488093 3.641429 2.421639 -9.691702 -27.985869 0.000000 0.000000 0.000000 -2.552813 22.574883 -44.069135 -4.999759 -13.383426 40.821486 0.163951 7.533156 0.224693 -0.541237 4.712283 -13.089996 -5.189492 -5.612429 15.664385 2.333845 -8.361153 -4.402902 7.639261 -3.404391 -12.572233 14.611624 4.821201 -0.556784 -23.091088 7.595909 7.267849 -9.529222 3.441382 3.668997 0.000000 0.000000 0.000000 10.843284 23.444121 -11.184523 25.408565 -36.614949 8.533872 21.604391 -8.743536 -31.560589 0.000000 0.000000 0.000000 -7.125000 0.000000 0.000000 -12.515910 63.006756 5.516747 0.000000 0.000000 0.000000 -3.076516 14.888166 5.864925 -24.060106 -35.227752 -7.741260 -14.321536 -2.302165 -21.810467 0.000000 0.000000 0.000000 7.125000 0.000000 0.000000 9.116115 7.769743 7.902785
25.760440 18.702773 -30.043917 -0.895623 -31.891152 25.799977 0.000000 0.000000 0.000000 -9.746490 -8.312551 -34.394129 1.521909 7.789593 22.076919 -0.007651 -5.638760 7.808927 2.197704 -9.260615 -26.618255 0.000000 0.000000 0.000000 -1.087684 21.578555 -41.627576 -4.370343 -12.637382 38.026002 -0.003018 -0.346490 -1.237795 -0.002281 0.085854 -0.235969 -5.418541 -5.735924 15.146148 2.140387 -8.639121 -5.458993 7.649800 -3.450014 -13.453389 13.502640 4.288857 -1.457410 -22.877650 6.888337 7.914442 -9.286121 2.987482 3.823776 0.000000 0.000000 0.000000 12.453367 22.633636 -10.539293 39.523756 -47.771813 18.089908 23.944532 -14.110280 -28.872300 0.000000 0.000000 0.000000 -7.125000 0.000000 0.000000 -8.084028 60.903001 3.144268 0.000000 0.000000 0.000000 -2.009237 15.952170 5.612298 -23.353345 -34.472946 -7.337261 -14.433894 -3.080386 -23.114621 0.000000 0.000000 0.000000 7.125000 0.000000 0.000000 9.105336 6.443995 8.132103
25.352798 18.813500 -30.250722 -0.435102 -30.051821 25.960574 0.000000 0.000000 0.000000 -8.306854 -9.224522 -33.672780 1.225714 7.021543 19.779163 0.195295 -3.529921 10.418001 2.998345 -10.689008 -31.241534 0.000000 0.000000 0.000000 -0.242316 20.249528 -39.952822 -3.431487 -11.362291 33.512327 -0.090878 -0.607486 5.509084 -0.409342 -4.106318 11.376011 -5.562640 -5.022776 15.461609 0.883804 -7.975362 -6.553446 6.325551 -3.055853 -15.241723 12.761778 3.752271 -2.604733 -22.438693 6.212147 8.900960 -9.036745 2.549793 4.143110 0.000000 0.000000 0.000000 13.481557 21.779918 -10.673063 64.919420 -57.469267 38.465839 22.165673 -16.092957 -27.992984 0.000000 0.000000 0.000000 -7.125000 0.000000 0.000000 -9.636614 59.576507 3.460036 0.000000 0.000000 0.000000 -2.194944 17.287444 9.400990 -21.948993 -32.919280 -6.558079 -13.164030 -1.633660 -24.225337 0.000000 0.000000 0.000000 7.125000 0.000000 0.000000 9.944828 5.491454 9.088055
24.926698 18.799920 -30.573293 -0.127861 -26.852170 26.966583 0.000000 0.000000 0.000000 -5.898694 -10.288794 -36.631914 1.319855 7.276343 20.536646 0.426385 -2.200983 13.334682 2.231112 -9.331736 -26.838721 0.000000 0.000000 0.000000 2.579756 16.883101 -39.123347 -2.800467 -10.364716 30.166127 -0.078708 1.194780 5.880983 -0.186626 -2.782484 7.673709 -4.511496 -4.365892 16.657745 -0.069444 -7.120596 -7.307011 4.647829 -2.698093 -17.314841 13.001844 4.125781 -5.779801 -24.165144 6.972895 10.693289 -9.677719 2.600392 5.477271 0.000000 0.000000 0.000000 14.366557 20.668689 -13.266145 94.461129 -59.924374 63.862529 23.254563 -15.487432 -22.969223 0.000000 0.000000 0.000000 -7.125000 0.000000 0.000000 -6.197578 54.638017 1.471771 0.000000 0.000000 0.000000 -3.684454 17.538478 13.134453 -21.756078 -32.700302 -6.453596 -8.662839 4.687489 -27.016655 0.000000 0.000000 0.000000 7.125000 0.000000 0.000000 12.771053 3.270850 12.336905
24.490944 18.734867 -31.017112 1.031589 -23.141066 28.483463 0.000000 0.000000 0.000000 -4.434614 -10.254268 -43.651633 1.795553 8.425764 24.015435 1.039153 2.734799 18.539863 0.003654 0.312887 0.859761 0.000000 0.000000 0.000000 5.373307 12.892519 -40.339948 -2.415169 -9.682021 27.953040 0.011426 2.245410 2.042395 -0.003873 -0.136910 0.376149 -3.165061 -3.803275 17.906929 -1.189038 -6.273120 -7.319845 2.477298 -2.503380 -18.522511 11.316181 3.977659 -5.623584 -24.677603 6.524763 7.948921 -9.490841 2.437704 4.523922 0.000000 0.000000 0.000000 13.522116 20.835303 -15.280475 118.907455 -56.586761 84.746766 25.095575 -7.590594 -22.389410 0.000000 0.000000 0.000000 -7.125000 0.000000 0.000000 -4.079735 54.394033 0.943956 0.000000 0.000000 0.000000 -5.070981 16.907504 14.896051 -23.755935 -34.904633 -7.566632 -6.635496 4.894372 -26.026188 0.000000 0.000000 0.000000 7.125000 0.000000 0.000000 13.949949 4.448662 13.231947
